<svg xmlns="http://www.w3.org/2000/svg" enable-background="new 0 0 65 65" viewBox="0 0 65 65"><path fill="#fad1c4" d="M21.6,49c-5.5-3.6-8.8-9.8-8.8-16.5c0-1.9,0.3-3.8,0.8-5.6L21.6,49z"/><path fill="#e54125" d="M13.8,30.7L19.4,46c-3.6-3.5-5.7-8.3-5.7-13.5C13.7,31.9,13.7,31.3,13.8,30.7 M13.5,24
			c-1.2,2.6-1.8,5.4-1.8,8.5c0,8.2,4.8,15.3,11.7,18.7L13.5,24L13.5,24z"/><path fill="#fad1c4" d="M21.1,23.7c0.6-0.1,1.1-0.1,1.1-0.1c1-0.1,1.7-0.9,1.7-2c-0.1-1-0.8-1.7-1.8-1.7c0,0-0.1,0-0.1,0
			c0,0-2.8,0.2-4.9,0.3c3.7-4.7,9.4-7.4,15.4-7.4c4.3,0,8.4,1.4,11.8,3.9c-1.5,0.8-2.5,2.4-2.5,4.2c0,1.9,0.9,3.4,1.9,5l0.2,0.4
			c0.8,1.4,1.6,2.9,1.6,5.2c0,1.5-0.6,3.4-1.4,5.9L44,37.9l-1.2,3.9l-6.1-18.1c0.7-0.1,1.1-0.1,1.1-0.1c1-0.1,1.7-0.9,1.7-2
			c-0.1-1-0.9-1.7-1.8-1.7c0,0-0.1,0-0.1,0c-0.1,0-3.4,0.3-5.5,0.3c-2,0-5.4-0.3-5.4-0.3c0,0-0.1,0-0.1,0c-1,0-1.8,0.8-1.8,1.8
			c0,1,0.7,1.8,1.7,1.9l0,0c0,0,0.7,0.1,1.5,0.2l2.9,7.9l-3.5,10.5L21.1,23.7z"/><path fill="#e54125" d="M32.5,13.7c3.6,0,7.1,1,10.1,2.9c-1.1,1-1.8,2.5-1.8,4.2c0,2.1,1.1,3.9,2.1,5.5l0.2,0.4
			c0.7,1.3,1.4,2.7,1.4,4.7c0,1.4-0.6,3.1-1.3,5.6L43,37.6l-0.3,0.9l-4.7-14c1.5-0.2,2.5-1.5,2.4-3c-0.1-1.5-1.3-2.7-2.8-2.7
			c-0.1,0-0.1,0-0.2,0c0,0-3.3,0.3-5.4,0.3c-1.9,0-5.3-0.3-5.4-0.3c-0.1,0-0.1,0-0.2,0c-0.9,0-1.7,0.4-2.2,1.1
			c-0.5-0.7-1.3-1.1-2.2-1.1c-0.1,0-0.1,0-0.2,0c0,0-1.1,0.1-2.4,0.2C22.9,15.6,27.6,13.7,32.5,13.7 M24.3,23.5c0.5,0.6,1.2,1,2,1
			c0.1,0,0.5,0.1,0.9,0.1l2.6,7L27.3,39l-4.9-14.4C23.2,24.4,23.9,24,24.3,23.5 M32.5,11.7c-7.3,0-13.7,3.7-17.4,9.4
			c0.5,0,0.9,0,1.3,0c2.2,0,5.5-0.3,5.5-0.3c0,0,0,0,0.1,0c1.1,0,1.2,1.6,0.1,1.7c0,0-1.1,0.1-2.4,0.2l7.6,22.5l4.6-13.6l-3.2-8.9
			c-1.1-0.1-2.2-0.2-2.2-0.2c-1.1-0.1-1-1.7,0.1-1.7c0,0,0,0,0.1,0c0,0,3.4,0.3,5.5,0.3c2.2,0,5.5-0.3,5.5-0.3c0,0,0,0,0.1,0
			c1.1,0,1.2,1.6,0.1,1.7c0,0-1.1,0.1-2.4,0.2l7.5,22.4l2.1-6.9c0.9-2.9,1.6-4.9,1.6-6.7c0-2.6-0.9-4.3-1.7-5.7
			c-1.1-1.7-2-3.2-2-4.9c0-1.9,1.4-3.7,3.5-3.7c0.1,0,0.2,0,0.3,0C42.8,13.8,37.9,11.7,32.5,11.7L32.5,11.7z"/><path fill="#fad1c4" d="M32.5,52.3c-1.5,0-3.1-0.2-4.6-0.5l5-14.4l5.2,14.2C36.3,52,34.4,52.3,32.5,52.3z"/><path fill="#e54125" d="M32.9,40.3l3.8,10.5c-1.4,0.3-2.8,0.5-4.3,0.5c-1.1,0-2.2-0.1-3.3-0.3L32.9,40.3 M32.9,34.3l-6.2,18.1
			c1.9,0.5,3.8,0.8,5.9,0.8c2.4,0,4.7-0.4,6.9-1.2c-0.1-0.1-0.1-0.2-0.1-0.3L32.9,34.3L32.9,34.3z"/><path fill="#fad1c4" d="M50.2,32.4c0.7-1.7,1.2-3.3,1.4-4.9c0.4,1.6,0.6,3.3,0.6,5c0,6-2.8,11.7-7.4,15.4L50.2,32.4z"/><path fill="#e54125" d="M51.3,32.5c0,4.2-1.5,8.3-4,11.6l3.9-11.3C51.2,32.7,51.3,32.6,51.3,32.5 M50.7,22.5c0.1,0.7,0.1,1.4,0.1,2.1
			c0,2.1-0.4,4.5-1.6,7.4L43,50.5c6.2-3.6,10.3-10.3,10.3-18C53.3,28.9,52.4,25.5,50.7,22.5L50.7,22.5z"/><g><path fill="#e54125" d="M32.5,8.3C19.1,8.3,8.3,19.1,8.3,32.5c0,13.4,10.9,24.2,24.2,24.2c13.4,0,24.2-10.9,24.2-24.2
			C56.7,19.1,45.9,8.3,32.5,8.3z M32.5,55.6c-12.8,0-23.1-10.4-23.1-23.1c0-12.8,10.4-23.1,23.1-23.1c12.8,0,23.1,10.4,23.1,23.1
			C55.6,45.3,45.2,55.6,32.5,55.6z"/></g></svg>